#!OML:ASF I:\Actors\actors\Patient Classification 1\Patient 1\Session 1\Subject1.ASF
:FULLY-SPECIFIED
:DEGREES
1597
root 0.72887 17.5427 8.78765 12.4898 9.55194 -9.53286
lowerback 0.825565 0.240485 5.56358
upperback -8.63792 0.840362 1.94108
thorax -9.57908 0.0778581 -1.11919
lowerneck -7.52168 -4.89381 -2.20312
upperneck 14.4588 -7.82537 9.38753
head 6.07973 -3.25121 2.72653
rclavicle -1.97791e-014 -2.62396e-014
rhumerus 44.7904 24.7233 -62.9689
rradius 114.898
rwrist 39.0625
rhand -25.4735 -32.4242
rfingers 7.12502
rthumb 1.0543 297.599
lclavicle -1.97791e-014 -2.62396e-014
lhumerus 24.2313 -41.2574 84.3573
lradius 111.52
lwrist -26.5126
lhand -57.0523 300.856
lfingers 7.12502
lthumb -29.3414 -31.4398
rfemur -6.68068 27.1261 25.0671
rtibia -0.0693919
rfoot -16.737 -38.156
rtoes 15.5439
lfemur -5.0279 -66.6425 0.051077
ltibia -4.72265
lfoot -32.6106 62.3038
ltoes 10.0046
1598
root 0.731789 17.542 8.77562 12.4747 9.38617 -9.45157
lowerback 0.823425 0.242239 5.46755
upperback -8.63765 0.831593 1.8838
thorax -9.57651 0.0781716 -1.12601
lowerneck -7.5638 -4.93764 -2.31207
upperneck 14.5461 -7.90786 9.55764
head 6.13099 -3.28072 2.79021
rclavicle -5.66785e-014 6.36111e-015
rhumerus 44.7618 24.6645 -62.8881
rradius 114.893
rwrist 39.0848
rhand -25.2778 -32.5025
rfingers 7.12502
rthumb 1.24327 297.521
lclavicle -5.66785e-014 6.36111e-015
lhumerus 24.2075 -41.3288 84.4382
lradius 111.506
lwrist -26.5097
lhand -57.0812 301.023
lfingers 7.12502
lthumb -29.369 -31.277
rfemur -6.66132 27.3201 24.9348
rtibia -0.128563
rfoot -16.6899 -38.2418
rtoes 15.534
lfemur -4.87595 -66.4775 -0.212184
ltibia -4.73357
lfoot -32.4659 62.2243
ltoes 9.94632
1599
root 0.733696 17.5415 8.76359 12.4458 9.25614 -9.42852
lowerback 0.819581 0.249872 5.43142
upperback -8.63803 0.834919 1.83274
thorax -9.57336 0.0800753 -1.16053
lowerneck -7.61479 -4.96335 -2.32772
upperneck 14.583 -7.96326 9.66658
head 6.16047 -3.2978 2.82136
rclavicle -3.65267e-015 3.06128e-014
rhumerus 44.7227 24.6386 -62.7737
rradius 114.986
rwrist 39.0114
rhand -25.0684 -33.0829
rfingers 7.12502
rthumb 1.44546 296.942
lclavicle -3.65267e-015 3.06128e-014
lhumerus 24.2224 -41.451 84.4911
lradius 111.406
lwrist -26.7056
lhand -57.375 300.895
lfingers 7.12502
lthumb -29.6495 -31.4552
rfemur -6.64316 27.4882 24.8795
rtibia -0.17385
rfoot -16.6746 -38.3309
rtoes 15.4655
lfemur -4.82569 -66.3243 -0.302703
ltibia -4.75295
lfoot -32.0973 62.2419
ltoes 9.67257
1600
root 0.734487 17.5401 8.75216 12.4249 9.17307 -9.45216
lowerback 0.81706 0.202792 5.42961
upperback -8.6532 0.772175 1.84285
thorax -9.59293 0.0490849 -1.14292
lowerneck -7.64633 -4.93401 -2.34444
upperneck 14.6693 -7.9364 9.70668
head 6.19375 -3.27911 2.83841
rclavicle -2.66123e-014 1.74931e-014
rhumerus 44.7355 24.7736 -62.6472
rradius 115.144
rwrist 38.714
rhand -24.935 -33.9452
rfingers 7.12502
rthumb 1.57439 296.081
lclavicle -2.66123e-014 1.74931e-014
lhumerus 24.1665 -41.4283 84.5585
lradius 111.308
lwrist -27.1013
lhand -57.7167 300.412
lfingers 7.12502
lthumb -29.9756 -31.9964
rfemur -6.65972 27.6026 24.8829
rtibia -0.179937
rfoot -16.6147 -38.4071
rtoes 15.2539
lfemur -4.88659 -66.1954 -0.230125
ltibia -4.76508
lfoot -31.7779 62.2661
ltoes 9.42211
1601
root 0.736695 17.5386 8.73978 12.4058 9.08688 -9.47531
lowerback 0.816516 0.14634 5.44468
upperback -8.68112 0.699376 1.86275
thorax -9.6289 0.0117706 -1.12318
lowerneck -7.61642 -4.88335 -2.26784
upperneck 14.7938 -7.87136 9.59637
head 6.21594 -3.24845 2.79712
rclavicle -2.91468e-014 8.74653e-015
rhumerus 44.7062 24.8959 -62.6375
rradius 115.183
rwrist 38.5933
rhand -24.9053 -34.1897
rfingers 7.12502
rthumb 1.603 295.837
lclavicle -2.91468e-014 8.74653e-015
lhumerus 24.0416 -41.353 84.6422
lradius 111.276
lwrist -27.3129
lhand -57.842 300.244
lfingers 7.12502
lthumb -30.0951 -32.186
rfemur -6.70142 27.61 24.8767
rtibia -0.163222
rfoot -16.5476 -38.3644
rtoes 15.2045
lfemur -4.95307 -66.0664 -0.170898
ltibia -4.74824
lfoot -31.3966 62.2883
ltoes 9.10485
1602
root 0.740521 17.5386 8.72646 12.3919 8.96836 -9.47467
lowerback 0.767501 0.12796 5.45131
upperback -8.69347 0.671591 1.86424
thorax -9.61525 -0.00232621 -1.12246
lowerneck -7.66112 -4.88983 -2.25668
upperneck 14.9752 -7.88891 9.5287
head 6.27888 -3.254 2.77118
rclavicle -2.25621e-014 -1.66979e-014
rhumerus 44.7053 24.9596 -62.6168
rradius 115.136
rwrist 38.6101
rhand -24.8068 -34.1084
rfingers 7.12502
rthumb 1.6982 295.919
lclavicle -2.25621e-014 -1.66979e-014
lhumerus 23.9113 -41.3453 84.7257
lradius 111.275
lwrist -27.3705
lhand -57.8443 300.431
lfingers 7.12502
lthumb -30.0973 -31.9994
rfemur -6.75417 27.5707 24.8247
rtibia -0.161489
rfoot -16.517 -38.2346
rtoes 15.3255
lfemur -4.95344 -65.9173 -0.2116
ltibia -4.73846
lfoot -31.2564 62.2538
ltoes 9.14815
1603
root 0.743039 17.5393 8.71279 12.3798 8.81701 -9.49207
lowerback 0.70861 0.123351 5.47202
upperback -8.68596 0.662656 1.88142
thorax -9.57256 -0.0066408 -1.11479
lowerneck -7.75094 -4.85932 -2.28868
upperneck 15.0732 -7.84009 9.45202
head 6.32036 -3.23212 2.75416
rclavicle 1.51573e-015 2.34566e-014
rhumerus 44.7647 25.0649 -62.4969
rradius 115.123
rwrist 38.444
rhand -24.6793 -34.4262
rfingers 7.12502
rthumb 1.82133 295.602
lclavicle 1.51573e-015 2.34566e-014
lhumerus 23.8075 -41.3483 84.7791
lradius 111.275
lwrist -27.4577
lhand -57.9747 300.403
lfingers 7.12502
lthumb -30.2217 -32.0498
rfemur -6.83088 27.5936 24.7894
rtibia -0.122898
rfoot -16.4985 -38.125
rtoes 15.48
lfemur -4.92075 -65.7322 -0.256683
ltibia -4.74266
lfoot -31.4287 62.1443
ltoes 9.48207
1604
root 0.743935 17.5391 8.69897 12.3287 8.64641 -9.54924
lowerback 0.703364 0.129739 5.52935
upperback -8.67149 0.672798 1.87931
thorax -9.55295 -0.00587226 -1.14989
lowerneck -7.8757 -4.86284 -2.14864
upperneck 15.2272 -7.85382 9.29477
head 6.38025 -3.23394 2.67692
rclavicle 5.14355e-015 3.06128e-014
rhumerus 44.6866 25.1244 -62.5038
rradius 115.175
rwrist 38.3536
rhand -24.5322 -34.7958
rfingers 7.12502
rthumb 1.96335 295.234
lclavicle 5.14355e-015 3.06128e-014
lhumerus 23.7416 -41.3841 84.7319
lradius 111.287
lwrist -27.54
lhand -58.1884 300.488
lfingers 7.12502
lthumb -30.4256 -32.0024
rfemur -6.86957 27.641 24.8278
rtibia -0.0626688
rfoot -16.3959 -38.0144
rtoes 15.4496
lfemur -4.77902 -65.5339 -0.352823
ltibia -4.74902
lfoot -31.3537 62.0757
ltoes 9.40284
1605
root 0.744588 17.5379 8.68606 12.2466 8.48975 -9.59052
lowerback 0.723282 0.159348 5.56717
upperback -8.66921 0.713298 1.84502
thorax -9.5595 0.00909903 -1.21105
lowerneck -7.80308 -4.87867 -1.91289
upperneck 15.2498 -7.87517 9.08693
head 6.35861 -3.24808 2.57189
rclavicle 2.59911e-014 -2.62396e-014
rhumerus 44.477 25.1104 -62.5738
rradius 115.279
rwrist 38.364
rhand -24.3752 -35.066
rfingers 7.12502
rthumb 2.11502 294.965
lclavicle 2.59911e-014 -2.62396e-014
lhumerus 23.659 -41.492 84.6924
lradius 111.305
lwrist -27.5944
lhand -58.3605 300.739
lfingers 7.12502
lthumb -30.5897 -31.7821
rfemur -6.84722 27.6267 24.8727
rtibia -0.0476702
rfoot -16.2076 -37.8811
rtoes 15.1643
lfemur -4.56794 -65.3647 -0.529148
ltibia -4.75076
lfoot -30.8969 62.0811
ltoes 9.09279
